<svg width="24" height="24" viewBox="0 0 24 24" fill="none" xmlns="http://www.w3.org/2000/svg">
  <path d="M7 18C5.89543 18 5 18.8954 5 20C5 21.1046 5.89543 22 7 22C8.10457 22 9 21.1046 9 20C9 18.8954 8.10457 18 7 18ZM1 2V4H3L6.6 11.59L5.25 14.04C5.09 14.32 5 14.65 5 15C5 16.1046 5.89543 17 7 17H19V15H7.42C7.28 15 7.18 14.89 7.22 14.76L7.94 13H15.55C16.3 13 16.96 12.58 17.3 11.97L21.88 4.98C22.06 4.7 22 4.31 21.72 4.09C21.44 3.87 21.05 3.93 20.83 4.21L17.21 9H7.16L6.27 7H19V5H5.21L4.27 3H1ZM17 18C15.8954 18 15 18.8954 15 20C15 21.1046 15.8954 22 17 22C18.1046 22 19 21.1046 19 20C19 18.8954 18.1046 18 17 18Z" fill="currentColor"/>
</svg>